<?xml version="1.0" encoding="UTF-8" standalone="no"?>
<svg
   version="1.1"
   id="svg36227"
   width="237.81514"
   height="48.425411"
   viewBox="0 0 237.81514 48.425411"
   xmlns="http://www.w3.org/2000/svg">
  <defs
     id="defs36231" />
  <g
     id="g36233"
     transform="translate(-29.73311,91.642303)">
    <path
       style="fill:none;stroke:currentColor;stroke-width:2;stroke-dasharray:none;stroke-opacity:1"
       d="m 37.0793,-44.531693 -6.718913,-0.559909"
       id="path37968" />
    <path
       style="fill:none;stroke:currentColor;stroke-width:2;stroke-dasharray:none;stroke-opacity:1"
       d="m 49.100811,-70.456464 -10.97567,-19.632408 -7.39203,-0.08886 v 45.644302 h 6.705668 v -32.920257 l 11.599551,20.032345 18.637968,-32.773802 7.080984,0.08886 v 45.597842 h -6.122567 l -0.266567,-33.300663 -13.127072,22.736756"
       id="path38026" />
    <path
       style="fill:none;stroke:currentColor;stroke-width:2;stroke-dasharray:none;stroke-opacity:1"
       d="m 97.789796,-77.453683 v 32.945241 h -6.99722 v -38.776257 h 7.288771 v -6.705669 l -7.907936,-0.08886"
       id="path38499" />
    <path
       style="fill:none;stroke:currentColor;stroke-width:2;stroke-dasharray:none;stroke-opacity:1"
       d="m 116.44905,-83.436837 h -6.70567 v -6.26198 h 13.41134 v 45.190375 h 6.99722 v -44.898824 h 11.66203 v 5.792841 h -6.70567"
       id="path38501" />
    <path
       style="fill:none;stroke:currentColor;stroke-width:2;stroke-dasharray:none;stroke-opacity:1"
       d="m 159.89012,-77.453683 v -6.414118 h 19.82546 v -5.831016 H 152.8929 v 45.481926 h 26.82268 v -6.414118 h -19.53391 v -20.991658 h 18.95081 v 6.122567 h -12.82824"
       id="path38503" />
    <path
       style="fill:none;stroke:currentColor;stroke-width:2;stroke-dasharray:none;stroke-opacity:1"
       d="m 200.99879,-73.663523 v -9.874553 c 0,0 9.30914,-0.381175 11.59952,0.0769 10.77021,4.053486 6.7693,13.980602 -0.22904,15.045567 l -2.91551,0.583101 17.2015,22.740963 h -7.58032 l -18.07378,-22.880809 m 0.0601,-0.695281 0.22904,23.867641 h -7.28877 v -45.481925 c 0,0 17.89273,-0.314646 19.24235,-0.152692 4.66968,0.323909 8.7651,2.988597 11.42428,7.611885 2.65919,4.623288 3.72019,14.498246 -5.39878,18.175815"
       id="path38505" />
    <path
       style="fill:none;stroke:currentColor;stroke-width:2;stroke-dasharray:none;stroke-opacity:1"
       d="m 253.70599,-73.540895 c 0,0 4.95401,2.397364 5.4919,2.819337 4.75201,3.727971 7.7944,8.554441 7.29862,14.848814 -0.85267,10.825357 -14.60469,11.636055 -14.60469,11.636055 -8.97614,0 -16.73573,-3.572746 -16.27931,-3.420609 l 2.43421,-6.085516 c 0,0 17.12702,8.26143 21.2993,-1.521379 3.07272,-7.204667 -6.69406,-11.410341 -6.69406,-11.410341 0,0 -10.49752,-3.955585 -9.12828,-10.649652 1.36925,-6.694068 10.72544,-6.65534 10.72544,-6.65534 1.52692,-0.03817 6.87718,1.879035 8.90035,2.699754 l 2.28207,-6.388682 c -6.77945,-2.919672 -14.03604,-4.732899 -22.21213,-0.456414 -9.84133,5.147486 -7.54916,15.000079 -6.23276,17.298443 0.43504,0.75954 3.11441,5.977605 8.44453,7.98645"
       id="path39233" />
  </g>
</svg>
